inDegrees=yes
name=SYN01_S01_straightWalk_ik.mot
DataType=double
version=3
OpenSimVersion=4.5
endheader
time	pelvis_tilt	pelvis_list	pelvis_rotation	pelvis_tx	pelvis_ty	pelvis_tz	hip_flexion_r	hip_adduction_r	hip_rotation_r	knee_angle_r	knee_angle_r_beta	ankle_angle_r	subtalar_angle_r	mtp_angle_r	hip_flexion_l	hip_adduction_l	hip_rotation_l	knee_angle_l	knee_angle_l_beta	ankle_angle_l	subtalar_angle_l	mtp_angle_l	lumbar_extension	lumbar_bending	lumbar_rotation	arm_flex_r	arm_add_r	arm_rot_r	elbow_flex_r	pro_sup_r	wrist_flex_r	wrist_dev_r	arm_flex_l	arm_add_l	arm_rot_l	elbow_flex_l	pro_sup_l	wrist_flex_l	wrist_dev_l
0	-0.02661588836166958	0.03022191664012535	128.8467228745543	0	0.93	0	0.2052929510102381	-0.0003272446968901587	-0.1257096541981965	0.4722280602155201	0.008241934471066869	0.2150083029902569	4.094932600730127e-34	7.590883261814303e-37	10.13435969652252	-4.603402814491296	0	23.71596174787702	0.4139216177774834	-2.695492583901607	0	0	0	0	5.22293717676086e-62	0	1.347017302871753e-36	0	0	0	1.837657650237478e-48	0	0	-1.347017302871753e-36	-1.094139000518153e-36	0	0	0	0
0.01	-0.01456131724433147	0.009987718184439186	128.8313372382922	0	0.93	-3.804803992766174e-29	0.2268842558041302	-0.005397357344741991	-0.1076583319489981	0.453816808698341	0.007920597512679291	0.194175430096073	-1.689380783388001e-16	3.270367902773143e-23	10.13165835904705	-4.606416990366657	-2.851280463723781e-17	23.70792534518169	0.4137813560904337	-2.697732527726209	-3.028314409192513e-19	3.756334190479273e-23	-1.244412469254568e-36	2.078785736600104e-22	2.453690511086083e-27	2.55736274691906e-17	9.816390290238621e-24	5.379120695381034e-15	3.737124604818968e-15	3.735768614134399e-15	5.031890477363311e-22	-5.105489895035152e-23	-4.220959309482741e-14	-3.736593734281995e-15	-6.28035785745398e-15	3.735624152008564e-15	3.735768633130693e-15	-6.490447905685795e-22	-9.858492285116453e-23
0.02	-0.01619297007721002	0.01254236609734084	128.8274656242337	0	0.93	0	0.2261643309942914	-0.005931515103358434	-0.1051897713651986	0.4510055764963203	0.007871532254715942	0.1821515732652104	0	0	10.12079861112599	-4.606057214580241	-2.851280463723781e-17	23.69028026244985	0.4134733912999762	-2.698129211299242	0	0	0	0	0	0	0	0	3.417554755536174e-39	1.08133895941783e-37	0	0	0	0	0	0	1.239247791841273e-39	0	0
0.03	-0.0175960344713342	0.02090105269922903	128.8322923894966	-2.776790386347701e-40	0.93	-1.825929919752089e-29	0.2138390580359716	0.0006316440427713878	-0.1110123103028916	0.4584810799063008	0.008002004402464164	0.2111221695442184	5.430913882277322e-18	-8.318659147895952e-18	10.10952755194206	-4.605254413248726	-3.145549509041096e-17	23.67256941673431	0.4131642787289272	-2.6982455139484	2.549980744283375e-17	5.475128724407946e-17	-1.453718023970028e-25	-8.50477115310626e-18	4.44697925707399e-17	1.782183987164678e-17	3.3514773223215e-18	-2.697514358506362e-17	2.14859671280881e-15	2.148765713748137e-15	-5.287835205986509e-23	7.834709935513758e-21	-2.170174734225888e-17	-2.478009695413637e-17	-1.242630246466164e-17	2.14878552299472e-15	2.148765718885827e-15	2.871457204693321e-23	3.608735143156338e-21
0.04	-0.01289178125358023	0.006706441386987708	128.8271864539726	0	0.93	0	0.2318171964198517	-0.009639281573066087	-0.1020573051964961	0.4443075242880333	0.007754629190210855	0.1797840594416719	0	0	10.10350058093295	-4.606436478649548	-3.145544363041174e-17	23.66070508139528	0.4129572070137005	-2.69941150669771	0	0	0	0	0	0	0	0	0	0	0	0	0	0	0	0	0	0	0
0.05	-0.01544445460096588	0.012944263730337	128.8305136043142	0	0.93	0	0.2249544869783771	-0.002730125740349763	-0.107291612665809	0.4551014531206471	0.007943018787565915	0.2025798856236491	0	0	10.09650000715609	-4.607438551796175	-3.145544363041174e-17	23.64761148990917	0.4127286807313569	-2.700519020228536	0	0	0	0	0	0	0	0	0	0	0	0	0	0	0	0	2.011035650863315e-46	0	0
0.06	-0.01828713185820507	0.01581450493346192	128.8259760451184	0	0.93	0	0.2255572229628705	-0.004492535068469155	-0.1058791457847986	0.4561417989116539	0.007961176246978247	0.187864504154923	-1.018465483006012e-16	4.617468594266155e-23	10.0872600825503	-4.607559053462054	-3.145544363041174e-17	23.63197119871319	0.4124557061540163	-2.701148445731173	-1.927663420504644e-19	-6.089688974452871e-23	0	-6.397200812040471e-24	-2.529310221438453e-27	1.803008204728059e-14	-1.773036742744759e-22	4.339366072473018e-13	4.991650250572829e-16	4.991527351560016e-16	-4.443400514291235e-23	1.353746332816997e-23	1.411756420016856e-13	-1.071388458797068e-12	-1.513902183957871e-13	4.991488876224617e-16	4.991527210285163e-16	6.000015347876677e-23	2.986348717309646e-24
0.07000000000000001	-0.01425646301072878	0.008556794173891	128.8301042739508	0	0.93	0	0.2310292699609591	-0.005246403596079179	-0.1048741530239767	0.4524163632759005	0.007896155129063222	0.2004221846294239	0	0	10.08371616674448	-4.609689362626151	-3.145524951952978e-17	23.62280593394288	0.4122957421069573	-2.702818345031231	0	0	0	0	0	0	0	0	0	2.450210200316637e-46	0	0	0	0	0	0	4.410378360569947e-46	0	0
0.08	-0.02293240543760529	0.03214976455670902	128.8371798851292	0	0.93	0	0.2036006768373495	0.006453095509504598	-0.1113846330190946	0.4656047382254991	0.00812633569492126	0.2285940593760489	0	0	10.0662460621279	-4.606859532798512	-3.16712675409802e-17	23.59774241220899	0.4118583011305558	-2.701910568869237	0	0	0	0	0	0	0	0	0	0	0	0	0	0	0	0	0	0	0
0.09	-0.01760040809449213	0.02602790980774118	128.8436364527385	0	0.93	0	0.216473095504874	0.005650296623111986	-0.115930533397193	0.4744583457211305	0.008280860296399278	0.236884944321212	0	0	10.06170294817237	-4.609081692596266	-3.16712675409802e-17	23.58839587092117	0.4116951732114097	-2.703720997143467	0	0	0	0	0	0	0	0	0	0	0	0	0	0	0	0	0	0	0
0.1	-0.01409963001291068	0.02076223718740214	128.8344419847197	1.830902816631298e-42	0.93	-1.229644734828994e-27	0.2295950030766798	-0.007926750844600818	-0.1047613953686009	0.4642174933055548	0.008102123703536666	0.2047148037926478	-3.382901662705136e-15	2.328159665696544e-22	10.05614086143502	-4.609871682592986	-3.167135617666424e-17	23.57775275876653	0.4115094158616523	-2.704585739176599	2.453142638900511e-19	-2.50599096449643e-22	-1.194046863288064e-30	-3.42319487393719e-22	7.210743903322553e-26	1.881734766512363e-14	1.53270394538947e-21	7.524796894989787e-15	2.768330628392657e-15	2.768516243501698e-15	1.249327180064282e-22	-6.943414442306599e-23	2.127816445813197e-14	3.214956213991754e-14	1.408963165750606e-14	2.768807951612475e-15	2.768516259262281e-15	2.126884860529449e-22	-1.379400944936276e-22
0.11	-0.01542521670732018	0.03473355883869764	128.8406944978263	0	0.93	0	0.2127163206863284	0.008664816006336909	-0.1138856397815529	0.4684796634207471	0.008176512605326878	0.2264670137340697	0	0	10.04465225254774	-4.609229211110181	-3.169232957632311e-17	23.55953122202945	0.411191390050817	-2.704820260995488	0	0	0	0	0	0	0	0	0	1.052357314912593e-38	0	0	0	0	0	0	0	0	0
0.12	-0.01532223759842809	0.01645526898560436	128.830190632224	0	0.93	0	0.2334341684648527	-0.01021318211276395	-0.1011929853687146	0.4592493468172324	0.008015413189594046	0.1940025618891937	0	0	10.04332060576135	-4.611521299722146	-3.169217206568152e-17	23.55393283612484	0.4110936797839844	-2.706466910940455	0	0	0	0	0	0	0	0	0	5.095262203655783e-39	0	0	0	0	0	0	0	0	0
0.13	-0.02366491098426327	0.02283361854918227	128.8241209003738	0	0.93	0	0.2489365469705017	-0.005860906450299999	-0.1093602932489041	0.5087944607933323	0.00888013855675285	0.2052398613005341	0	0	10.05762139942009	-4.619311214284158	-3.168785823858207e-17	23.56693606068657	0.4113206288659628	-2.710968716246811	0	0	0	0	0	0	0	0	0	0	0	0	0	0	0	0	0	0	0
